<svg xmlns="http://www.w3.org/2000/svg" xmlns:xlink="http://www.w3.org/1999/xlink" style="isolation:isolate" viewBox="0 0 224 56" width="168" height="42">
  <defs><clipPath id="_clipPath_NaafQerNX9oYqPYPML1NpC0noDNNJjZs"><rect width="224" height="56"/></clipPath></defs>
  <g clip-path="url(#_clipPath_NaafQerNX9oYqPYPML1NpC0noDNNJjZs)"><rect x="167.75" y="5.5" width="40" height="21" transform="matrix(1,0,0,1,0,0)" fill="rgb(0,0,0)" fill-opacity="0.5"/>
    <g transform="matrix(0.25,0,0,0.25,-1,-3)"><text transform="matrix(1,0,0,1,0,180)" style="font-size:200px;font-style:normal;fill:#329FFF;stroke:none;">a</text></g>
    <g transform="matrix(0.25,0,0,0.25,25.25,-3)"><text transform="matrix(1,0,0,1,0,180)" style="font-size:200px;font-style:normal;fill:#329FFF;stroke:none;">i</text></g>
    <g transform="matrix(0.25,0,0,0.25,72.75,-3)"><text transform="matrix(1,0,0,1,0,180)" style="font-size:200px;font-style:normal;fill:#329FFF;stroke:none;">a</text></g>
    <g transform="matrix(0.25,0,0,0.25,99,-3)"><text transform="matrix(1,0,0,1,0,180)" style="font-size:200px;font-style:normal;fill:#329FFF;stroke:none;">r</text></g>
    <g transform="matrix(0.25,0,0,0.25,115,-3)"><text transform="matrix(1,0,0,1,0,180)" style="font-size:200px;font-style:normal;fill:#329FFF;stroke:none;">k</text></g>
    <g transform="matrix(0.25,0,0,0.25,142.25,5.5)"><text transform="matrix(1,0,0,1,0,64.8)" style="font-size:72px;font-style:normal;fill:#329FFF;stroke:none;">for</text></g>
    <g transform="matrix(0.25,0,0,0.25,170.5,5.25)"><text transform="matrix(1,0,0,1,0,64.8)" style="font-size:72px;font-style:normal;fill:#FFFFFF;stroke:none;">w</text></g>
    <g transform="matrix(0.25,0,0,0.25,184.25,5.25)"><text transform="matrix(1,0,0,1,0,64.8)" style="font-size:72px;font-style:normal;fill:#FFFFFF;stroke:none;">e</text></g>
    <g transform="matrix(0.25,0,0,0.25,194.75,5.25)"><text transform="matrix(1,0,0,1,0,64.8)" style="font-size:72px;font-style:normal;fill:#FFFFFF;stroke:none;">b</text></g>
    <g transform="matrix(0.25,0,0,0.25,34.125,-3)"><text transform="matrix(1,0,0,1,0,180)" style="font-size:200px;font-style:normal;fill:#329FFF;stroke:none;">m</text></g>
  </g>
</svg>